<!DOCTYPE svg PUBLIC "-//W3C//DTD SVG 1.1//EN" "http://www.w3.org/Graphics/SVG/1.1/DTD/svg11.dtd">

<!-- Uploaded to: SVG Repo, www.svgrepo.com, Transformed by: SVG Repo Mixer Tools -->
<svg height="24px" width="24px" version="1.1" id="Layer_1" xmlns="http://www.w3.org/2000/svg" xmlns:xlink="http://www.w3.org/1999/xlink" viewBox="0 0 511.998 511.998" xml:space="preserve" fill="#000000">

<g id="SVGRepo_bgCarrier" stroke-width="0"/>

<g id="SVGRepo_tracerCarrier" stroke-linecap="round" stroke-linejoin="round"/>

<g id="SVGRepo_iconCarrier"> <g> <path style="fill:#1d1c1b;" d="M141.24,19.551L141.24,19.551c-5.844,23.358-8.828,43.502-8.828,67.584v407.208 c0,9.754,7.901,17.655,17.655,17.655H361.93c9.754,0,17.655-7.901,17.655-17.655V87.214c0-24.126-2.966-44.262-8.828-67.663 L315.32,6.76c-39.036-9.013-79.607-9.013-118.643,0L141.24,19.551z"/> <g> <path style="fill:#8f8b8a;" d="M335.447,185.381L335.447,185.381c-47.316-11.847-112.41-11.794-158.897,0l-8.828-97.103 c34.781-11.555,135.795-11.988,176.552,0L335.447,185.381z"/> <path style="fill:#8f8b8a;" d="M344.275,459.036L344.275,459.036c-58.412,11.767-118.413,11.767-176.552,0v-61.793 c0-9.754,7.901-17.655,17.655-17.655H326.62c9.754,0,17.655,7.901,17.655,17.655V459.036z"/> <polygon style="fill:#8f8b8a;" points="476.689,291.312 379.585,229.519 379.585,185.381 476.689,247.174 "/> <polygon style="fill:#8f8b8a;" points="476.689,423.725 379.585,361.932 379.585,317.794 476.689,379.588 "/> <polygon style="fill:#8f8b8a;" points="35.309,282.484 132.413,220.691 132.413,176.553 35.309,238.346 "/> <polygon style="fill:#8f8b8a;" points="35.309,423.725 132.413,361.932 132.413,317.794 35.309,379.588 "/> <polygon style="fill:#8f8b8a;" points="344.275,335.45 308.964,335.45 308.964,256.019 344.275,229.536 "/> <polygon style="fill:#8f8b8a;" points="167.723,335.45 203.033,335.45 203.033,256.019 167.723,229.536 "/> </g> </g> </g>

</svg>